<svg version="1.1" id="Calque_1" xmlns="http://www.w3.org/2000/svg" xmlns:xlink="http://www.w3.org/1999/xlink" x="0px" y="0px"
	 viewBox="0 0 144.76 98.42" style="enable-background:new 0 0 144.76 98.42;" xml:space="preserve">
<g>
	<path class="st0" d="M69.1,42.8c0,0,6.35-10.72,7.71-12.19c1.37-1.47,0.74-4.88-6.11-8.77c-6.85-3.89-2.57-0.93-5.33,2.3
		c0,0-8.44,9.94-15.51,20.65c-1.55,2.15-4.29,5.65-4.9,6.19c-1.31,1.17,1.28-5.86,4.31-11.82c4.11-8.08,10.24-20.03,10.4-20.38
		c0.16-0.34,2.46-4.27,0.71-8.04s-6.72-8.98-7.95-10.17C51.2-0.62,49.4,0.1,49.67,2.26c0.27,2.16,1,5.05-5.19,14.75
		c-6.19,9.7-15.01,20.88-22.35,30.37C15.44,56.03,9.81,62.39,3.36,74c-1.08,1.94-1.35,2.49-1.98,4.1
		c-0.63,1.61-4.1,11.57,3.17,16.75c1.55,1.01,3.23,2.63,8.01,3.57c0,0-3.91-8.21,12.12-39.73c1.89-3.77,4.31-9.63,19.53-30.17
		c0,0-1.88,5.79-5.12,11.65c-3.23,5.86-10.24,18.45-10.3,22.89c-0.07,4.45-0.14,12.26,7.47,13.27c1.01-2.69,7.47-18.39,19.12-32.73
		c-0.07,1.28-4.85,12.39-7,17.24c0,0-7.68,15.02,1.68,19.93c1.75,0.74,5.12,1.21,8.01,1.01C57.89,80.17,56.37,68.52,69.1,42.8"/>
	<path class="st0" d="M89.74,47.17c-0.67,1.35-2.09,3.43-3.3,5c-1.21,1.57,0,2.14,0,2.14s-2.56,3.9-7.07,11.92
		c-4.51,8.01-3.37-1.75-3.3-2.9c1.68-6.06,3.77-8.82,3.77-8.82c4.04-7.95,9.9-10.71,9.9-10.71C90.41,43.33,91.02,45.35,89.74,47.17
		 M138.59,50.44c0.03-0.88,0.03-1.45,0-2.66c-0.03-1.21-0.24-1.41-1.58-1.35c-1.35,0.07-3.64,0.81-1.35-2.56
		c2.29-3.37,2.69-3.84,4.92-7c0.61-0.74,1.75-2.16-1.48-5.25c-0.94-1.28-2.15-2.49-2.15-2.49s-2.02-1.08-3.37,1.08
		c-2.02,2.62-3.64,5.05-6.94,11.51c-0.4,0.67-0.4,1.95-1.95,1.21c-1.55-0.74-3.43-1.82-3.43-1.82s-1.08-0.61,0.61-3.16
		c1.68-2.56,6.19-8.75,6.19-8.75s0.88-0.88-0.2-2.63c-1.08-1.75-3.7-5.05-3.7-5.05s-2.42-1.35-3.43,0.4
		c-1.75,1.95-5.18,7.81-6.94,11.58c-0.54,1.08-0.74,1.55-0.74,1.55s0.2,2.29-3.84-1.82c-1.55-1.48-3.97-4.11-4.51-6.8
		c-0.07-1.01-0.47-1.68-2.22-0.67c-1.75,1.01-6.13,4.98-6.13,4.98s-1.75,2.29,0,3.97c1.75,1.68,3.37,4.04,11.11,7.47
		c0.88,0.47,2.02,0.61,1.08,2.7c-0.94,2.09-2.83,7.88-10.37,18.72c-0.67,1.28-3.3,4.38-3.3,4.38s-1.95,3.3-1.35-4.04
		c1.01-3.37,1.68-6.26,5.12-11.77c0,0,2.09-1.1-0.4-3.32c-2.49-2.22-3.57-3.32-4.78-3.24c0,0,1.35-2.75,0.4-4.16
		c-0.94-1.41-1.62-2.56-3.91-4.04c-2.29-1.48-4.85-2.69-9.23,0.61c-2.16,1.89-10.17,9.02-14.41,27.68
		c-0.34,4.51-0.88,9.83,4.92,12.93c1.08,0.81,3.77,1.35,5.92,0.61c0.67-1.82,5.39-14.28,7.14-15.49c0.47-0.14-1.88,6.6-1.28,9.63
		c0.61,3.03,2.29,8.08,9.9,7.27c0.67-0.74,4.78-11.92,6.53-13.87c0.4-0.27-1.35,7-0.61,9.36c0.74,2.36,3.91,7.21,11.58,6.33
		l0.61-0.07c0,0-3.1-3.97,0-16.83c1.41-3.57,2.83-9.73,5.32-15.33c1.15-3.05,1.15-3.79,2.36-3.32c1.21,0.47,3.84,1.41,3.84,1.41
		s1.21-0.07,0,2.69c-1.21,2.76-4.71,11.52-5.99,18.79c-0.2,1.41-1.82,8.75,2.42,11.72c2.42,1.55,4.85,2.22,8.28,1.55
		c0,0-1.55-3.43-0.74-12.05c1.08-6.33,4.78-17.51,5.12-18.86s0.54-0.81,5.99-0.81C137.62,51.35,138.56,51.31,138.59,50.44"/>
	<path class="st0" d="M139.7,73.02c-2.79,0-5.05,2.26-5.05,5.05s2.26,5.05,5.05,5.05c2.79,0,5.05-2.26,5.05-5.05
		S142.49,73.02,139.7,73.02"/>
</g>
</svg>